# xmcd
#
# Track frame offsets: 
#        150
#        11700
#        27650
#        38707
#        50850
#        63168
#        75138
#        89788
#        105081
#        114910
#        131560
#
# Disc length: 2038 seconds
#
# Revision: 1
# Processed by: cddbd v1.5.2PL0 Copyright (c) Steve Scherf et al.
# Submitted via: ExactAudioCopy v0.95b3
#
DISCID=8407f40b
DTITLE=Wandering Sons - Little Bird
DYEAR=2006
DGENRE=Soul
TTITLE0=Gettin' By
TTITLE1=No Better
TTITLE2=New Orleans
TTITLE3=Paint it Down
TTITLE4=In the Spring
TTITLE5=Change Your Mind
TTITLE6=These Four Walls
TTITLE7=November 1942
TTITLE8=Hang Your Head
TTITLE9=A Sinners Waltz
TTITLE10=Pale Blue Dress
EXTD=
EXTT0=
EXTT1=
EXTT2=
EXTT3=
EXTT4=
EXTT5=
EXTT6=
EXTT7=
EXTT8=
EXTT9=
EXTT10=
PLAYORDER=
